<?xml version="1.0" encoding="UTF-8"?>
<svg version="1.1" xmlns="http://www.w3.org/2000/svg" width="223" height="223">
<path d="M0 0 C73.59 0 147.18 0 223 0 C223 73.59 223 147.18 223 223 C149.41 223 75.82 223 0 223 C0 149.41 0 75.82 0 0 Z " fill="#FDFDFD" transform="translate(0,0)"/>
<path d="M0 0 C0.97710937 0.27070313 1.95421875 0.54140625 2.9609375 0.8203125 C5.90342312 1.65203646 8.84057621 2.5004687 11.77636719 3.35546875 C16.30507853 4.6681387 20.84079134 5.95647533 25.375 7.25 C27.21616949 7.77595887 29.05731722 8.3019939 30.8984375 8.828125 C32.25195312 9.21484375 33.60546875 9.6015625 35 10 C35 13.96 35 17.92 35 22 C33.02 22.33 31.04 22.66 29 23 C29.495 24.485 29.495 24.485 30 26 C31.65 26.33 33.3 26.66 35 27 C35 30.96 35 34.92 35 39 C33.02 39.33 31.04 39.66 29 40 C29 40.99 29 41.98 29 43 C30.98 43.33 32.96 43.66 35 44 C35 50.6 35 57.2 35 64 C7.61 64 -19.78 64 -48 64 C-48 57.4 -48 50.8 -48 44 C-45.03 43.505 -45.03 43.505 -42 43 C-42 42.01 -42 41.02 -42 40 C-42.804375 40.020625 -43.60875 40.04125 -44.4375 40.0625 C-47 40 -47 40 -48 39 C-48.07244053 36.98035801 -48.08377188 34.95832876 -48.0625 32.9375 C-48.05347656 31.83277344 -48.04445313 30.72804687 -48.03515625 29.58984375 C-48.02355469 28.73519531 -48.01195313 27.88054687 -48 27 C-46.02 26.67 -44.04 26.34 -42 26 C-42 24.68 -42 23.36 -42 22 C-43.98 22 -45.96 22 -48 22 C-48 18.04 -48 14.08 -48 10 C-45.2775 9.3503125 -45.2775 9.3503125 -42.5 8.6875 C-38.97544385 7.80943828 -35.55654897 6.92207187 -32.1875 5.5625 C-27.0816119 3.51150901 -21.71562572 2.30687328 -16.390625 0.96484375 C-13.12001219 0.15910376 -13.12001219 0.15910376 -10.7890625 -1.16015625 C-7.3628084 -2.76855064 -3.48832214 -0.97512175 0 0 Z " fill="#6E8691" transform="translate(117,132)"/>
<path d="M0 0 C1.32 0.33 2.64 0.66 4 1 C3.67 9.25 3.34 17.5 3 26 C5.97 26.99 8.94 27.98 12 29 C13.32 29.66 14.64 30.32 16 31 C16 34.63 16 38.26 16 42 C17.65 42.66 19.3 43.32 21 44 C23.77042109 46.77042109 23.39796106 48.76533805 23.625 52.625 C23.73714844 54.40777344 23.73714844 54.40777344 23.8515625 56.2265625 C23.90054688 57.14179687 23.94953125 58.05703125 24 59 C25.65 59.66 27.3 60.32 29 61 C29 64.96 29 68.92 29 73 C24.5470164 72.41249992 20.81179158 71.26681981 16.6875 69.5 C15.63949219 69.0565625 14.59148437 68.613125 13.51171875 68.15625 C11 67 11 67 10 66 C9.92755947 63.98035801 9.91622812 61.95832876 9.9375 59.9375 C9.94652344 58.83277344 9.95554688 57.72804687 9.96484375 56.58984375 C9.97644531 55.73519531 9.98804688 54.88054687 10 54 C13.63 55.32 17.26 56.64 21 58 C21 54.04 21 50.08 21 46 C17.96287147 44.8610768 15.89828268 44.64003244 12.85546875 45.859375 C9.54635561 48.07737516 7.41077889 50.08362524 6.54931641 54.10253906 C5.92550423 59.39568878 5.90987527 64.67700795 6 70 C10.16788118 71.2673656 14.0942456 72.26802019 18.4375 72.625 C19.30246094 72.69976562 20.16742188 72.77453125 21.05859375 72.8515625 C21.69925781 72.90054688 22.33992188 72.94953125 23 73 C23.33 74.65 23.66 76.3 24 78 C22.02 78.99 22.02 78.99 20 80 C21.305239 82.61047801 22.35826574 82.68066423 25.0625 83.625 C27.0115625 84.305625 27.0115625 84.305625 29 85 C29 88.96 29 92.92 29 97 C23.97525707 96.38169051 19.75279506 94.87023224 15.125 92.9375 C14.43664062 92.65583984 13.74828125 92.37417969 13.0390625 92.08398438 C11.35710091 91.39484734 9.67822303 90.69819202 8 90 C8 92.31 8 94.62 8 97 C9.85625 97.37125 9.85625 97.37125 11.75 97.75 C17.65694804 99.05009383 23.28615604 101.02970898 29 103 C29 106.96 29 110.92 29 115 C23.8466943 114.41787966 19.22907712 113.21699571 14.34375 111.4609375 C12.89470789 110.95782429 11.44548349 110.45523587 9.99609375 109.953125 C7.74264818 109.16478766 5.4911209 108.37183095 3.24267578 107.56933594 C1.0516979 106.79042777 -1.14524955 106.03080679 -3.34375 105.2734375 C-4.33936951 104.9094838 -4.33936951 104.9094838 -5.35510254 104.53817749 C-12.0824463 102.24766295 -17.37341582 103.54990631 -23.8125 106.0625 C-28.8113879 108 -28.8113879 108 -31 108 C-31 103.71 -31 99.42 -31 95 C-30.08476563 94.72285156 -29.16953125 94.44570312 -28.2265625 94.16015625 C-26.44378906 93.61681641 -26.44378906 93.61681641 -24.625 93.0625 C-22.84996094 92.52302734 -22.84996094 92.52302734 -21.0390625 91.97265625 C-18.12073182 91.12423726 -18.12073182 91.12423726 -16 90 C-8.22830329 89.92259266 -1.20859542 92.3370309 6 95 C6 93.02 6 91.04 6 89 C4.94619141 88.81824219 4.94619141 88.81824219 3.87109375 88.6328125 C-0.21969913 87.73116836 -4.04652065 86.20839873 -7.96484375 84.7421875 C-13.84102892 83.3052825 -18.6801683 85.49060994 -24.1875 87.5625 C-30.6713881 90 -30.6713881 90 -34 90 C-34 88.35 -34 86.7 -34 85 C-32.03387584 84.26686896 -30.06774448 83.53375722 -28.1015625 82.80078125 C-26.45035157 82.17160236 -24.81536743 81.4998218 -23.1875 80.8125 C-21 80 -21 80 -18 80 C-18 79.34 -18 78.68 -18 78 C-18.96421875 78.3609375 -19.9284375 78.721875 -20.921875 79.09375 C-22.19779268 79.56283738 -23.47384129 80.03156873 -24.75 80.5 C-25.70132813 80.85771484 -25.70132813 80.85771484 -26.671875 81.22265625 C-30.03286607 82.44801758 -32.36871587 83 -36 83 C-36 85.64 -36 88.28 -36 91 C-39.33333333 92.33333333 -42.66666667 93.66666667 -46 95 C-46.87269531 95.37382813 -47.74539062 95.74765625 -48.64453125 96.1328125 C-51 97 -51 97 -54 97 C-54 93.04 -54 89.08 -54 85 C-50.89796196 83.82738774 -47.79361833 82.66171068 -44.6875 81.5 C-43.80642578 81.16613281 -42.92535156 80.83226563 -42.01757812 80.48828125 C-41.17001953 80.17246094 -40.32246094 79.85664062 -39.44921875 79.53125 C-38.66893311 79.23798828 -37.88864746 78.94472656 -37.0847168 78.64257812 C-35 78 -35 78 -32 78 C-32 77.01 -32 76.02 -32 75 C-33.6396875 74.9071875 -33.6396875 74.9071875 -35.3125 74.8125 C-39 74 -39 74 -40.9375 71.5625 C-42 69 -42 69 -42 67 C-44.475 67.495 -44.475 67.495 -47 68 C-47.33 69.32 -47.66 70.64 -48 72 C-49.32 72 -50.64 72 -52 72 C-52.495 69.525 -52.495 69.525 -53 67 C-50.39583333 66.47916667 -47.79166667 65.95833333 -45.1875 65.4375 C-44.1046875 65.2209375 -44.1046875 65.2209375 -43 65 C-43.04640625 64.38511719 -43.0928125 63.77023438 -43.140625 63.13671875 C-43.17671875 62.32847656 -43.2128125 61.52023438 -43.25 60.6875 C-43.29640625 59.88699219 -43.3428125 59.08648437 -43.390625 58.26171875 C-43 56 -43 56 -41.27734375 54.296875 C-38.94366232 52.96791748 -36.90702536 52.23515472 -34.3125 51.5625 C-29.29946378 50.15559176 -24.68703029 48.25232778 -20 46 C-19.27554688 45.71253906 -18.55109375 45.42507812 -17.8046875 45.12890625 C-15.79557193 44.1493363 -15.79557193 44.1493363 -15.38720703 41.92944336 C-15.25942871 41.29272705 -15.13165039 40.65601074 -15 40 C-17.73168016 40.93063855 -20.46019192 41.86920375 -23.1875 42.8125 C-23.95642578 43.07353516 -24.72535156 43.33457031 -25.51757812 43.60351562 C-29.67327814 45.04820104 -33.26279732 46.64169624 -37 49 C-38.67216385 49.72400315 -40.3601611 50.41261173 -42.0625 51.0625 C-44.49097623 51.99422663 -46.82073233 52.90524895 -49.12109375 54.12109375 C-51 55 -51 55 -54 55 C-54.05389087 53.04196493 -54.09274217 51.08351091 -54.125 49.125 C-54.14820312 48.03445312 -54.17140625 46.94390625 -54.1953125 45.8203125 C-54 43 -54 43 -52 41 C-49.95894137 40.13504788 -47.89193502 39.33062272 -45.8125 38.5625 C-42.12295403 37.18452592 -38.46464147 35.80862841 -34.875 34.1875 C-32 33 -32 33 -29 33 C-29 34.32 -29 35.64 -29 37 C-30.89454824 37.96087136 -32.79069581 38.91858969 -34.6875 39.875 C-35.74324219 40.40867188 -36.79898438 40.94234375 -37.88671875 41.4921875 C-45.12953368 45 -45.12953368 45 -49 45 C-49 45.99 -49 46.98 -49 48 C-47.72886216 47.43818846 -46.45811722 46.87548801 -45.1875 46.3125 C-43.96933594 45.77302734 -43.96933594 45.77302734 -42.7265625 45.22265625 C-40.81998776 44.36770225 -38.91937079 43.49939355 -37.0234375 42.62109375 C-36.04632813 42.16863281 -35.06921875 41.71617188 -34.0625 41.25 C-33.14597656 40.82203125 -32.22945312 40.3940625 -31.28515625 39.953125 C-29 39 -29 39 -27 39 C-27.103125 37.741875 -27.20625 36.48375 -27.3125 35.1875 C-27.3046875 32.97265625 -27.3046875 32.97265625 -27 31 C-23.63777911 27.94343556 -19.39938334 26.91021724 -15 26 C-8.62399542 26.47229664 -2.07200513 27.97599829 4 30 C4 29.34 4 28.68 4 28 C2.68 27.34 1.36 26.68 0 26 C-0.19583915 21.85451585 -0.38027842 17.7086033 -0.5625 13.5625 C-0.64661133 11.78649414 -0.64661133 11.78649414 -0.73242188 9.97460938 C-0.78076172 8.84990234 -0.82910156 7.72519531 -0.87890625 6.56640625 C-0.9260376 5.52427979 -0.97316895 4.48215332 -1.02172852 3.40844727 C-1 1 -1 1 0 0 Z " fill="#F1F6F6" transform="translate(123,12)"/>
<path d="M0 0 C0.97710937 0.27070313 1.95421875 0.54140625 2.9609375 0.8203125 C5.90342312 1.65203646 8.84057621 2.5004687 11.77636719 3.35546875 C16.30507853 4.6681387 20.84079134 5.95647533 25.375 7.25 C27.21616949 7.77595887 29.05731722 8.3019939 30.8984375 8.828125 C32.25195312 9.21484375 33.60546875 9.6015625 35 10 C35 13.96 35 17.92 35 22 C33.02 22.33 31.04 22.66 29 23 C29.495 24.485 29.495 24.485 30 26 C31.65 26.33 33.3 26.66 35 27 C35 30.96 35 34.92 35 39 C33.68 39.33 32.36 39.66 31 40 C30.34 39.34 29.68 38.68 29 38 C26.49883664 37.31813523 24.03189341 36.7280134 21.5 36.1875 C12.23676392 34.11851309 3.12508605 31.60411812 -6 29 C-6 25.04 -6 21.08 -6 17 C-6.89203125 17.28875 -7.7840625 17.5775 -8.703125 17.875 C-9.87359375 18.24625 -11.0440625 18.6175 -12.25 19 C-13.41015625 19.37125 -14.5703125 19.7425 -15.765625 20.125 C-19 21 -19 21 -23 21 C-23 25.95 -23 30.9 -23 36 C-21.02 35.505 -19.04 35.01 -17 34.5 C-7.34185358 32.30970762 -0.46311736 33.0775667 9 36 C9 36.99 9 37.98 9 39 C-2.28366388 38.12917537 -2.28366388 38.12917537 -6.8125 37.3125 C-10.66413246 36.93488897 -13.30074651 37.91573605 -17 39 C-20.02431671 39.16936174 -22.96732046 39.09331322 -26 39 C-26.33 33.72 -26.66 28.44 -27 23 C-28.7325 23.495 -30.465 23.99 -32.25 24.5 C-35.77187446 25.50624984 -38.29230285 26 -42 26 C-42 24.68 -42 23.36 -42 22 C-43.98 22 -45.96 22 -48 22 C-48 18.04 -48 14.08 -48 10 C-45.2775 9.3503125 -45.2775 9.3503125 -42.5 8.6875 C-38.97544385 7.80943828 -35.55654897 6.92207187 -32.1875 5.5625 C-27.0816119 3.51150901 -21.71562572 2.30687328 -16.390625 0.96484375 C-13.12001219 0.15910376 -13.12001219 0.15910376 -10.7890625 -1.16015625 C-7.3628084 -2.76855064 -3.48832214 -0.97512175 0 0 Z " fill="#77909D" transform="translate(117,132)"/>
<path d="M0 0 C1.54417454 0.5647165 3.08844467 1.12917168 4.6328125 1.69335938 C8.38131675 3.06339728 12.12851124 4.43696063 15.875 5.8125 C15.875 9.7725 15.875 13.7325 15.875 17.8125 C10.85025707 17.19419051 6.62779506 15.68273224 2 13.75 C1.31164062 13.46833984 0.62328125 13.18667969 -0.0859375 12.89648438 C-1.76789909 12.20734734 -3.44677697 11.51069202 -5.125 10.8125 C-5.125 13.1225 -5.125 15.4325 -5.125 17.8125 C-3.8875 18.06 -2.65 18.3075 -1.375 18.5625 C4.53194804 19.86259383 10.16115604 21.84220898 15.875 23.8125 C15.875 27.7725 15.875 31.7325 15.875 35.8125 C10.7216943 35.23037966 6.10407712 34.02949571 1.21875 32.2734375 C-0.23029211 31.77032429 -1.67951651 31.26773587 -3.12890625 30.765625 C-5.38235182 29.97728766 -7.6338791 29.18433095 -9.88232422 28.38183594 C-12.0733021 27.60292777 -14.27024955 26.84330679 -16.46875 26.0859375 C-17.46436951 25.7219838 -17.46436951 25.7219838 -18.48010254 25.35067749 C-25.2074463 23.06016295 -30.49841582 24.36240631 -36.9375 26.875 C-41.9363879 28.8125 -41.9363879 28.8125 -44.125 28.8125 C-44.125 24.5225 -44.125 20.2325 -44.125 15.8125 C-42.75214844 15.39677734 -42.75214844 15.39677734 -41.3515625 14.97265625 C-40.16304687 14.61042969 -38.97453125 14.24820313 -37.75 13.875 C-36.56664063 13.51535156 -35.38328125 13.15570313 -34.1640625 12.78515625 C-31.24573182 11.93673726 -31.24573182 11.93673726 -29.125 10.8125 C-21.35330329 10.73509266 -14.33359542 13.1495309 -7.125 15.8125 C-7.125 13.8325 -7.125 11.8525 -7.125 9.8125 C-7.82753906 9.69132812 -8.53007813 9.57015625 -9.25390625 9.4453125 C-13.34469913 8.54366836 -17.17152065 7.02089873 -21.08984375 5.5546875 C-26.96602892 4.1177825 -31.8051683 6.30310994 -37.3125 8.375 C-43.7963881 10.8125 -43.7963881 10.8125 -47.125 10.8125 C-47.125 9.1625 -47.125 7.5125 -47.125 5.8125 C-45.15887584 5.07936896 -43.19274448 4.34625722 -41.2265625 3.61328125 C-39.57535157 2.98410236 -37.94036743 2.3123218 -36.3125 1.625 C-34.125 0.8125 -34.125 0.8125 -31.125 0.8125 C-31.125 0.1525 -31.125 -0.5075 -31.125 -1.1875 C-32.08921875 -0.8265625 -33.0534375 -0.465625 -34.046875 -0.09375 C-35.32279268 0.37533738 -36.59884129 0.84406873 -37.875 1.3125 C-38.50921875 1.55097656 -39.1434375 1.78945312 -39.796875 2.03515625 C-43.15786607 3.26051758 -45.49371587 3.8125 -49.125 3.8125 C-49.125 6.4525 -49.125 9.0925 -49.125 11.8125 C-52.45833333 13.14583333 -55.79166667 14.47916667 -59.125 15.8125 C-60.43404297 16.37324219 -60.43404297 16.37324219 -61.76953125 16.9453125 C-64.125 17.8125 -64.125 17.8125 -67.125 17.8125 C-67.125 13.8525 -67.125 9.8925 -67.125 5.8125 C-65.65289062 5.28140625 -64.18078125 4.7503125 -62.6640625 4.203125 C-60.69267659 3.48967105 -58.72132421 2.77612443 -56.75 2.0625 C-55.78449219 1.71445313 -54.81898437 1.36640625 -53.82421875 1.0078125 C-43.29255914 -2.699915 -43.29255914 -2.699915 -33.09228516 -7.20581055 C-23.20560407 -11.82523898 -9.63723245 -3.53938341 0 0 Z " fill="#6C8B99" transform="translate(136.125,91.1875)"/>
<path d="M0 0 C0 0.66 0 1.32 0 2 C-4.95 3.65 -9.9 5.3 -15 7 C-15.33 8.65 -15.66 10.3 -16 12 C-15.46109131 11.7827124 -14.92218262 11.5654248 -14.36694336 11.34155273 C-11.89682514 10.3566305 -9.41759547 9.39700635 -6.9375 8.4375 C-6.08994141 8.09525391 -5.24238281 7.75300781 -4.36914062 7.40039062 C3.86854174 4.25162401 9.22062764 5.51051884 17.4375 8.5625 C18.67371094 9.01753906 19.90992188 9.47257812 21.18359375 9.94140625 C22.11300781 10.29074219 23.04242188 10.64007813 24 11 C24 12.98 24 14.96 24 17 C19.89655015 16.56346278 16.32638499 15.83486206 12.4375 14.4375 C6.00686275 12.23611828 1.60808388 12.89696855 -4.65625 15.24609375 C-7 16 -7 16 -13 17 C-13 21.29 -13 25.58 -13 30 C-11.92621094 29.55527344 -10.85242188 29.11054687 -9.74609375 28.65234375 C-8.31023519 28.07987726 -6.87401782 27.50831016 -5.4375 26.9375 C-4.73302734 26.64294922 -4.02855469 26.34839844 -3.30273438 26.04492188 C5.10276504 22.75244515 12.06597699 25.3901531 20.3125 28.125 C21.21806641 28.39570312 22.12363281 28.66640625 23.05664062 28.9453125 C25.57395452 29.78629432 27.75445013 30.58277812 30 32 C31.54296875 35.6796875 31.54296875 35.6796875 32 39 C33.58272601 40.58272601 35.38034003 40.34735747 37.5625 40.5625 C38.38878906 40.64628906 39.21507812 40.73007813 40.06640625 40.81640625 C40.70449219 40.87699219 41.34257812 40.93757813 42 41 C42.495 43.475 42.495 43.475 43 46 C41.35 46.33 39.7 46.66 38 47 C38 47.66 38 48.32 38 49 C39.65 49.33 41.3 49.66 43 50 C38.99519815 51.59797512 36.30191936 50.30374844 32.375 48.875 C31.04159944 48.40791807 29.7068983 47.94453669 28.37109375 47.484375 C27.66581543 47.24138672 26.96053711 46.99839844 26.23388672 46.74804688 C22.33011037 45.4408151 18.39265608 44.26586343 14.4375 43.125 C13.31384033 42.7844458 13.31384033 42.7844458 12.16748047 42.43701172 C6.23797628 40.75296319 1.80772098 41.21656844 -4 43.3125 C-9.31831239 45.16115996 -14.72981687 46.63706491 -20.15625 48.1328125 C-22.8750773 48.71837531 -22.8750773 48.71837531 -24 50 C-25.99958364 50.04080783 -28.00045254 50.04254356 -30 50 C-30.06058594 48.68644531 -30.12117188 47.37289062 -30.18359375 46.01953125 C-30.26803256 44.28384459 -30.35267888 42.54816802 -30.4375 40.8125 C-30.47681641 39.94818359 -30.51613281 39.08386719 -30.55664062 38.19335938 C-30.76347016 34.04085878 -31.00103531 30.05462138 -32 26 C-30.35 25.67 -28.7 25.34 -27 25 C-27 25.66 -27 26.32 -27 27 C-26.34 27 -25.68 27 -25 27 C-24.7525 26.0925 -24.505 25.185 -24.25 24.25 C-23 21 -23 21 -20.96875 19.1875 C-18.40782908 16.34203231 -18.41421164 14.52686776 -18.25 10.75 C-18.19328125 9.67234375 -18.1365625 8.5946875 -18.078125 7.484375 C-18.05234375 6.66453125 -18.0265625 5.8446875 -18 5 C-15.56427941 4.16112944 -13.12666783 3.32873471 -10.6875 2.5 C-9.65206055 2.14228516 -9.65206055 2.14228516 -8.59570312 1.77734375 C-5.61068511 0.76791737 -3.17341086 0 0 0 Z " fill="#F2F5F6" transform="translate(105,90)"/>
<path d="M0 0 C37.95 0 75.9 0 115 0 C115 3.3 115 6.6 115 10 C77.05 10 39.1 10 0 10 C0 6.7 0 3.4 0 0 Z " fill="#5F7683" transform="translate(53,211)"/>
<path d="M0 0 C33 0 66 0 100 0 C100 3.3 100 6.6 100 10 C67 10 34 10 0 10 C0 6.7 0 3.4 0 0 Z " fill="#637A88" transform="translate(61,198)"/>
<path d="M0 0 C0.70125 0.2475 1.4025 0.495 2.125 0.75 C1.96 1.53375 1.795 2.3175 1.625 3.125 C1.0626293 5.63208039 1.0626293 5.63208039 1.125 7.75 C4.04143841 10.3423897 6.3510294 11.24041176 10.125 12.75 C10.125 16.71 10.125 20.67 10.125 24.75 C4.375 23.875 4.375 23.875 2.125 22.75 C-3.56937223 22.15683623 -7.44571151 23.55180887 -12.640625 25.875 C-14.875 26.75 -14.875 26.75 -17.875 26.75 C-17.875 28.73 -17.875 30.71 -17.875 32.75 C-17.215 33.08 -16.555 33.41 -15.875 33.75 C-18.35 34.245 -18.35 34.245 -20.875 34.75 C-20.875 34.09 -20.875 33.43 -20.875 32.75 C-22.5146875 32.6571875 -22.5146875 32.6571875 -24.1875 32.5625 C-27.875 31.75 -27.875 31.75 -29.8125 29.3125 C-30.875 26.75 -30.875 26.75 -30.875 24.75 C-32.525 25.08 -34.175 25.41 -35.875 25.75 C-36.205 27.07 -36.535 28.39 -36.875 29.75 C-38.195 29.75 -39.515 29.75 -40.875 29.75 C-41.205 28.1 -41.535 26.45 -41.875 24.75 C-39.27083333 24.22916667 -36.66666667 23.70833333 -34.0625 23.1875 C-33.340625 23.043125 -32.61875 22.89875 -31.875 22.75 C-31.92140625 22.13511719 -31.9678125 21.52023438 -32.015625 20.88671875 C-32.05171875 20.07847656 -32.0878125 19.27023438 -32.125 18.4375 C-32.17140625 17.63699219 -32.2178125 16.83648437 -32.265625 16.01171875 C-31.875 13.75 -31.875 13.75 -30.15234375 12.046875 C-27.81866232 10.71791748 -25.78202536 9.98515472 -23.1875 9.3125 C-16.81955973 7.51184531 -11.03725195 5.28852543 -5.625 1.4375 C-2.875 -0.25 -2.875 -0.25 0 0 Z " fill="#ECF5F6" transform="translate(111.875,54.25)"/>
<path d="M0 0 C1.65 0 3.3 0 5 0 C5 3.63 5 7.26 5 11 C6.3509375 11.26554688 7.701875 11.53109375 9.09375 11.8046875 C10.895854 12.16135392 12.69793618 12.51813062 14.5 12.875 C15.386875 13.04902344 16.27375 13.22304687 17.1875 13.40234375 C22.50274509 14.45757623 27.75440373 15.63957667 33 17 C33 17.66 33 18.32 33 19 C33.63808594 19.12117188 34.27617187 19.24234375 34.93359375 19.3671875 C36.17302734 19.61855469 36.17302734 19.61855469 37.4375 19.875 C38.26121094 20.03742188 39.08492188 20.19984375 39.93359375 20.3671875 C40.95646484 20.68042969 40.95646484 20.68042969 42 21 C42.495 21.99 42.495 21.99 43 23 C31.93298548 22.62674487 22.00157566 20.42117979 11.5546875 16.80859375 C4.16301967 15.12719239 -3.22841599 17.65472003 -10.4375 19.4375 C-13.95720181 20.29639899 -17.47789109 21.15102479 -21 22 C-21.83797119 22.20431641 -22.67594238 22.40863281 -23.53930664 22.61914062 C-24.33071045 22.80541016 -25.12211426 22.99167969 -25.9375 23.18359375 C-26.63617188 23.35044678 -27.33484375 23.5172998 -28.0546875 23.68920898 C-30.84956417 24.13572982 -33.28202614 23.69691637 -36 23 C-36 19.04 -36 15.08 -36 11 C-33.2775 10.3503125 -33.2775 10.3503125 -30.5 9.6875 C-26.97544385 8.80943828 -23.55654897 7.92207187 -20.1875 6.5625 C-15.5956608 4.71599445 -10.80381735 3.5674367 -6.0144043 2.35766602 C-2.73393253 1.72142743 -2.73393253 1.72142743 0 0 Z " fill="#082856" transform="translate(105,131)"/>
<path d="M0 0 C1 1 1 1 1.09765625 3.72265625 C1.08605469 4.82480469 1.07445312 5.92695312 1.0625 7.0625 C1.05347656 8.16722656 1.04445312 9.27195312 1.03515625 10.41015625 C1.02355469 11.26480469 1.01195312 12.11945312 1 13 C-3.34004999 11.61236497 -7.58482019 10.2461469 -11.6875 8.25 C-17.76364772 5.95711407 -23.28026934 8.66144765 -29.0625 10.875 C-29.75666016 11.13152344 -30.45082031 11.38804688 -31.16601562 11.65234375 C-35.0486399 13.11985036 -38.45862273 14.81197735 -42 17 C-43.67216385 17.72400315 -45.3601611 18.41261173 -47.0625 19.0625 C-49.49097623 19.99422663 -51.82073233 20.90524895 -54.12109375 22.12109375 C-56 23 -56 23 -59 23 C-59.05389087 21.04196493 -59.09274217 19.08351091 -59.125 17.125 C-59.14820312 16.03445312 -59.17140625 14.94390625 -59.1953125 13.8203125 C-59 11 -59 11 -57 9 C-54.95894137 8.13504788 -52.89193502 7.33062272 -50.8125 6.5625 C-47.12295403 5.18452592 -43.46464147 3.80862841 -39.875 2.1875 C-37 1 -37 1 -34 1 C-34 2.32 -34 3.64 -34 5 C-35.89454824 5.96087136 -37.79069581 6.91858969 -39.6875 7.875 C-40.74324219 8.40867187 -41.79898438 8.94234375 -42.88671875 9.4921875 C-50.12953368 13 -50.12953368 13 -54 13 C-54 13.99 -54 14.98 -54 16 C-52.72886216 15.43818846 -51.45811722 14.87548801 -50.1875 14.3125 C-49.37539062 13.95285156 -48.56328125 13.59320313 -47.7265625 13.22265625 C-45.81998776 12.36770225 -43.91937079 11.49939355 -42.0234375 10.62109375 C-41.04632813 10.16863281 -40.06921875 9.71617188 -39.0625 9.25 C-38.14597656 8.82203125 -37.22945312 8.3940625 -36.28515625 7.953125 C-34 7 -34 7 -32 7 C-32.103125 5.741875 -32.20625 4.48375 -32.3125 3.1875 C-32.3046875 0.97265625 -32.3046875 0.97265625 -32 -1 C-22.33257589 -9.78856738 -10.30752276 -4.42177788 0 0 Z " fill="#183862" transform="translate(128,44)"/>
<path d="M0 0 C0.90556641 0.27070312 1.81113281 0.54140625 2.74414062 0.8203125 C5.26145452 1.66129432 7.44195013 2.45777812 9.6875 3.875 C11.23046875 7.5546875 11.23046875 7.5546875 11.6875 10.875 C13.27022601 12.45772601 15.06784003 12.22235747 17.25 12.4375 C18.07628906 12.52128906 18.90257812 12.60507813 19.75390625 12.69140625 C20.71103516 12.78228516 20.71103516 12.78228516 21.6875 12.875 C22.1825 15.35 22.1825 15.35 22.6875 17.875 C21.0375 18.205 19.3875 18.535 17.6875 18.875 C17.6875 19.535 17.6875 20.195 17.6875 20.875 C19.3375 21.205 20.9875 21.535 22.6875 21.875 C18.68269815 23.47297512 15.98941936 22.17874844 12.0625 20.75 C10.72909944 20.28291807 9.3943983 19.81953669 8.05859375 19.359375 C7.35331543 19.11638672 6.64803711 18.87339844 5.92138672 18.62304688 C2.01761037 17.3158151 -1.91984392 16.14086343 -5.875 15 C-6.99865967 14.6594458 -6.99865967 14.6594458 -8.14501953 14.31201172 C-13.81169901 12.70260848 -17.75311057 12.98704857 -23.375 14.9375 C-26.2262905 15.84748633 -28.34756817 16.04940775 -31.3125 15.875 C-31.3125 13.895 -31.3125 11.915 -31.3125 9.875 C-28.3425 9.215 -25.3725 8.555 -22.3125 7.875 C-22.3125 4.575 -22.3125 1.275 -22.3125 -2.125 C-15.00763673 -5.88811138 -7.30548378 -2.42276408 0 0 Z " fill="#F2F6F7" transform="translate(125.3125,118.125)"/>
<path d="M0 0 C0.91007812 0.10183594 1.82015625 0.20367187 2.7578125 0.30859375 C3.45648438 0.39238281 4.15515625 0.47617188 4.875 0.5625 C4.875 1.8825 4.875 3.2025 4.875 4.5625 C4.215 4.5625 3.555 4.5625 2.875 4.5625 C2.875 5.8825 2.875 7.2025 2.875 8.5625 C3.74898437 8.70945312 3.74898437 8.70945312 4.640625 8.859375 C11.62505451 10.13326466 18.18852884 12.1958109 24.875 14.5625 C22.61759377 12.22725218 20.5944239 10.37544927 17.875 8.5625 C18.205 8.2325 18.535 7.9025 18.875 7.5625 C26.41938387 7.93353527 32.77165426 10.03142278 39.875 12.5625 C39.875 16.5225 39.875 20.4825 39.875 24.5625 C34.7216943 23.98037966 30.10407712 22.77949571 25.21875 21.0234375 C23.76970789 20.52032429 22.32048349 20.01773587 20.87109375 19.515625 C18.61764818 18.72728766 16.3661209 17.93433095 14.11767578 17.13183594 C11.9266979 16.35292777 9.72975045 15.59330679 7.53125 14.8359375 C6.86750366 14.5933017 6.20375732 14.35066589 5.51989746 14.10067749 C-1.2074463 11.81016295 -6.49841582 13.11240631 -12.9375 15.625 C-17.9363879 17.5625 -17.9363879 17.5625 -20.125 17.5625 C-20.125 13.2725 -20.125 8.9825 -20.125 4.5625 C-19.20976563 4.28535156 -18.29453125 4.00820312 -17.3515625 3.72265625 C-16.16304688 3.36042969 -14.97453125 2.99820313 -13.75 2.625 C-12.56664063 2.26535156 -11.38328125 1.90570313 -10.1640625 1.53515625 C-3.94516349 -0.45521117 -3.94516349 -0.45521117 0 0 Z " fill="#698592" transform="translate(112.125,102.4375)"/>
<path d="M0 0 C1.98 0.495 1.98 0.495 4 1 C3.67 9.25 3.34 17.5 3 26 C5.97 26.99 8.94 27.98 12 29 C13.32 29.66 14.64 30.32 16 31 C16 34.63 16 38.26 16 42 C17.65 42.66 19.3 43.32 21 44 C23.77042109 46.77042109 23.39796106 48.76533805 23.625 52.625 C23.69976562 53.81351563 23.77453125 55.00203125 23.8515625 56.2265625 C23.90054688 57.14179687 23.94953125 58.05703125 24 59 C25.65 59.66 27.3 60.32 29 61 C29 64.96 29 68.92 29 73 C24.5470164 72.41249992 20.81179158 71.26681981 16.6875 69.5 C15.11548828 68.83484375 15.11548828 68.83484375 13.51171875 68.15625 C11 67 11 67 10 66 C9.92755947 63.98035801 9.91622812 61.95832876 9.9375 59.9375 C9.94652344 58.83277344 9.95554688 57.72804687 9.96484375 56.58984375 C9.97644531 55.73519531 9.98804688 54.88054687 10 54 C13.63 55.32 17.26 56.64 21 58 C21 54.04 21 50.08 21 46 C17.96287147 44.8610768 15.89828268 44.64003244 12.85546875 45.859375 C9.54635561 48.07737516 7.41077889 50.08362524 6.54931641 54.10253906 C5.92550423 59.39568878 5.90987527 64.67700795 6 70 C10.16788118 71.2673656 14.0942456 72.26802019 18.4375 72.625 C19.30246094 72.69976562 20.16742188 72.77453125 21.05859375 72.8515625 C22.01958984 72.92503906 22.01958984 72.92503906 23 73 C23.33 74.65 23.66 76.3 24 78 C21.525 78.495 21.525 78.495 19 79 C18.67 78.01 18.34 77.02 18 76 C17.28457031 75.87753906 16.56914062 75.75507812 15.83203125 75.62890625 C12.94887287 74.98864625 10.41407527 74.06448444 7.6875 72.9375 C6.80449219 72.57527344 5.92148438 72.21304688 5.01171875 71.83984375 C4.01591797 71.42412109 4.01591797 71.42412109 3 71 C1.52129364 53.14177707 1.52129364 53.14177707 4.96875 48.1484375 C7.25124894 46.45100949 9.40950688 45.16058009 12 44 C13.73956658 42.26043342 13.37190386 39.8063378 13.5625 37.4375 C13.64628906 36.42558594 13.73007813 35.41367187 13.81640625 34.37109375 C13.87699219 33.58863281 13.93757812 32.80617187 14 32 C12.89398438 31.814375 12.89398438 31.814375 11.765625 31.625 C9.1352373 31.0305621 7.13177763 30.23634259 4.75 29 C3.72132812 28.4740625 3.72132812 28.4740625 2.671875 27.9375 C1 27 1 27 0 26 C-0.3840872 21.84541438 -0.47009573 17.66874736 -0.625 13.5 C-0.6765625 12.32050781 -0.728125 11.14101563 -0.78125 9.92578125 C-0.82507813 8.80558594 -0.86890625 7.68539063 -0.9140625 6.53125 C-0.9548291 5.49548828 -0.9955957 4.45972656 -1.03759766 3.39257812 C-1 1 -1 1 0 0 Z " fill="#36DEED" transform="translate(123,12)"/>
<path d="M0 0 C19.14 0 38.28 0 58 0 C58 2.97 58 5.94 58 9 C38.86 9 19.72 9 0 9 C0 6.03 0 3.06 0 0 Z " fill="#092756" transform="translate(53,211)"/>
<path d="M0 0 C0 8.91 0 17.82 0 27 C-6.93 27 -13.86 27 -21 27 C-21 19.41 -21 11.82 -21 4 C-18.2775 3.34 -15.555 2.68 -12.75 2 C-11.89889648 1.79117188 -11.04779297 1.58234375 -10.17089844 1.3671875 C-9.4905957 1.20476562 -8.81029297 1.04234375 -8.109375 0.875 C-7.41811523 0.70742187 -6.72685547 0.53984375 -6.01464844 0.3671875 C-4 0 -4 0 0 0 Z " fill="#072857" transform="translate(111,168)"/>
<path d="M0 0 C0 3.96 0 7.92 0 12 C0.969375 12.17015625 1.93875 12.3403125 2.9375 12.515625 C14.78852296 14.6409343 26.60161333 17.05440461 38 21 C37.67 21.66 37.34 22.32 37 23 C31.39 22.34 25.78 21.68 20 21 C20 29.25 20 37.5 20 46 C18.35 46 16.7 46 15 46 C15 37.09 15 28.18 15 19 C5.27757911 17.23228711 -1.59115557 16.14591079 -10.921875 18.5625 C-13 19 -13 19 -17 19 C-17 14.05 -17 9.1 -17 4 C-3.375 0 -3.375 0 0 0 Z " fill="#072A58" transform="translate(111,149)"/>
<path d="M0 0 C0 3.96 0 7.92 0 12 C-15.14285714 20 -15.14285714 20 -22 20 C-22 18.35 -22 16.7 -22 15 C-20.03387584 14.26686896 -18.06774448 13.53375722 -16.1015625 12.80078125 C-14.45035157 12.17160236 -12.81536743 11.4998218 -11.1875 10.8125 C-9 10 -9 10 -6 10 C-6 9.34 -6 8.68 -6 8 C-6.96421875 8.3609375 -7.9284375 8.721875 -8.921875 9.09375 C-10.19779268 9.56283738 -11.47384129 10.03156873 -12.75 10.5 C-13.38421875 10.73847656 -14.0184375 10.97695312 -14.671875 11.22265625 C-18.03286607 12.44801758 -20.36871587 13 -24 13 C-24 15.64 -24 18.28 -24 21 C-27.33333333 22.33333333 -30.66666667 23.66666667 -34 25 C-35.30904297 25.56074219 -35.30904297 25.56074219 -36.64453125 26.1328125 C-39 27 -39 27 -42 27 C-42 23.04 -42 19.08 -42 15 C-40.52789062 14.46890625 -39.05578125 13.9378125 -37.5390625 13.390625 C-35.56767659 12.67717105 -33.59632421 11.96362443 -31.625 11.25 C-30.65949219 10.90195313 -29.69398437 10.55390625 -28.69921875 10.1953125 C-23.16510837 8.18966176 -17.67343006 6.10819317 -12.21826172 3.89648438 C-2.57679739 0 -2.57679739 0 0 0 Z " fill="#15345F" transform="translate(111,82)"/>
<path d="M0 0 C7.59872699 0.68645965 14.81225048 2.59990985 22.1875 4.5 C24.68073676 5.13640795 27.17421702 5.77186292 29.66796875 6.40625 C30.76391357 6.68791016 31.8598584 6.96957031 32.98901367 7.25976562 C35.6426071 7.91213693 38.32045742 8.46409148 41 9 C41 12.96 41 16.92 41 21 C39.68 21.33 38.36 21.66 37 22 C36.34 21.34 35.68 20.68 35 20 C32.49883664 19.31813523 30.03189341 18.7280134 27.5 18.1875 C18.23676392 16.11851309 9.12508605 13.60411812 0 11 C0 7.37 0 3.74 0 0 Z " fill="#728B97" transform="translate(111,150)"/>
<path d="M0 0 C0 3.96 0 7.92 0 12 C-5.75 11.125 -5.75 11.125 -8 10 C-13.74518053 9.54210267 -17.68071275 10.73282235 -22.8125 13 C-29.80574324 16 -29.80574324 16 -32 16 C-32.05389087 14.04196493 -32.09274217 12.08351091 -32.125 10.125 C-32.14820312 9.03445312 -32.17140625 7.94390625 -32.1953125 6.8203125 C-32 4 -32 4 -30 2 C-27.44764912 0.85823488 -24.9194253 -0.18845288 -22.3125 -1.1875 C-21.61705078 -1.47302734 -20.92160156 -1.75855469 -20.20507812 -2.05273438 C-12.671525 -4.94376176 -7.0769316 -3.32182504 0 0 Z " fill="#122E5A" transform="translate(122,67)"/>
<path d="M0 0 C0.733396 0.17305664 1.46679199 0.34611328 2.22241211 0.52441406 C8.86850854 2.12518808 15.37641527 4.06274534 21.875 6.1875 C21.875 7.1775 21.875 8.1675 21.875 9.1875 C13.25766616 8.45252344 5.14400641 5.88487339 -3.12695312 3.45117188 C-10.28824626 1.47771323 -15.0737561 0.94933425 -22.125 3.1875 C-24.78727668 3.6099453 -27.44433284 3.89506358 -30.125 4.1875 C-30.125 9.1375 -30.125 14.0875 -30.125 19.1875 C-28.145 18.6925 -26.165 18.1975 -24.125 17.6875 C-14.46685358 15.49720762 -7.58811736 16.2650667 1.875 19.1875 C1.875 20.1775 1.875 21.1675 1.875 22.1875 C-9.40866388 21.31667537 -9.40866388 21.31667537 -13.9375 20.5 C-17.78913246 20.12238897 -20.42574651 21.10323605 -24.125 22.1875 C-27.14931671 22.35686174 -30.09232046 22.28081322 -33.125 22.1875 C-33.455 16.9075 -33.785 11.6275 -34.125 6.1875 C-36.72375 6.93 -36.72375 6.93 -39.375 7.6875 C-42.89687446 8.69374984 -45.41730285 9.1875 -49.125 9.1875 C-49.125 8.1975 -49.125 7.2075 -49.125 6.1875 C-40.46685069 3.54345941 -31.78763661 0.99398795 -23 -1.1875 C-22.31494385 -1.36700195 -21.6298877 -1.54650391 -20.92407227 -1.73144531 C-13.6356184 -3.48374344 -7.10495153 -1.68982631 0 0 Z " fill="#16B8CC" transform="translate(124.125,148.8125)"/>
<path d="M0 0 C16.17 0 32.34 0 49 0 C49 2.64 49 5.28 49 8 C32.83 8 16.66 8 0 8 C0 5.36 0 2.72 0 0 Z " fill="#042253" transform="translate(61,199)"/>
<path d="M0 0 C2.59875 0.144375 5.1975 0.28875 7.875 0.4375 C8.69210449 0.48060303 9.50920898 0.52370605 10.35107422 0.56811523 C15.77777778 0.88888889 15.77777778 0.88888889 18 2 C18 8.6 18 15.2 18 22 C12.06 22 6.12 22 0 22 C0 14.74 0 7.48 0 0 Z " fill="#587482" transform="translate(134,174)"/>
<path d="M0 0 C0 6.93 0 13.86 0 21 C-5.61 21 -11.22 21 -17 21 C-17 15.06 -17 9.12 -17 3 C-14.69 2.34 -12.38 1.68 -10 1 C-9.319375 0.79375 -8.63875 0.5875 -7.9375 0.375 C-6 0 -6 0 0 0 Z " fill="#042454" transform="translate(87,174)"/>
<path d="M0 0 C0 4.95 0 9.9 0 15 C-7.25903284 17.00249182 -13.47360963 18.49353379 -21 18 C-22 17 -22 17 -22.09765625 14.27734375 C-22.08605469 13.17519531 -22.07445313 12.07304687 -22.0625 10.9375 C-22.05347656 9.83277344 -22.04445313 8.72804687 -22.03515625 7.58984375 C-22.02355469 6.73519531 -22.01195313 5.88054687 -22 5 C-18.52126561 4.16485498 -15.04194299 3.3321874 -11.5625 2.5 C-10.56927734 2.26152344 -9.57605469 2.02304688 -8.55273438 1.77734375 C-7.60849609 1.55175781 -6.66425781 1.32617188 -5.69140625 1.09375 C-4.81685791 0.88427734 -3.94230957 0.67480469 -3.04125977 0.45898438 C-1 0 -1 0 0 0 Z " fill="#052656" transform="translate(91,154)"/>
<path d="M0 0 C0 0.66 0 1.32 0 2 C-4.95 3.65 -9.9 5.3 -15 7 C-15.0825 8.7325 -15.165 10.465 -15.25 12.25 C-15.390625 15.203125 -15.390625 15.203125 -16 18 C-16.99 18.89525391 -16.99 18.89525391 -18 19.80859375 C-20.55664996 22.6099231 -20.53290475 24.11233287 -20.609375 27.859375 C-20.64160156 28.97441406 -20.67382812 30.08945313 -20.70703125 31.23828125 C-20.72830078 32.97658203 -20.72830078 32.97658203 -20.75 34.75 C-20.77964844 35.92433594 -20.80929688 37.09867188 -20.83984375 38.30859375 C-20.91050727 41.20579822 -20.96322266 44.10219955 -21 47 C-20.34 47.33 -19.68 47.66 -19 48 C-22.85786966 49.81546807 -25.76705996 50.09380477 -30 50 C-30.06058594 48.68644531 -30.12117188 47.37289062 -30.18359375 46.01953125 C-30.26803256 44.28384459 -30.35267888 42.54816802 -30.4375 40.8125 C-30.47681641 39.94818359 -30.51613281 39.08386719 -30.55664062 38.19335938 C-30.76347016 34.04085878 -31.00103531 30.05462138 -32 26 C-30.35 25.67 -28.7 25.34 -27 25 C-27 25.66 -27 26.32 -27 27 C-26.34 27 -25.68 27 -25 27 C-24.7525 26.0925 -24.505 25.185 -24.25 24.25 C-23 21 -23 21 -20.96875 19.1875 C-18.40782908 16.34203231 -18.41421164 14.52686776 -18.25 10.75 C-18.19328125 9.67234375 -18.1365625 8.5946875 -18.078125 7.484375 C-18.05234375 6.66453125 -18.0265625 5.8446875 -18 5 C-15.56427941 4.16112944 -13.12666783 3.32873471 -10.6875 2.5 C-9.65206055 2.14228516 -9.65206055 2.14228516 -8.59570312 1.77734375 C-5.61068511 0.76791737 -3.17341086 0 0 0 Z " fill="#E4F7F8" transform="translate(105,90)"/>
<path d="M0 0 C1.73017508 0.45451184 3.45909877 0.91378857 5.1875 1.375 C6.15042969 1.63023438 7.11335938 1.88546875 8.10546875 2.1484375 C13.50436218 3.73677592 13.50436218 3.73677592 16 5 C17.25 8.5625 17.25 8.5625 18 12 C19.58272601 13.58272601 21.38034003 13.34735747 23.5625 13.5625 C24.38878906 13.64628906 25.21507812 13.73007813 26.06640625 13.81640625 C26.70449219 13.87699219 27.34257812 13.93757812 28 14 C28.33 15.65 28.66 17.3 29 19 C27.35 19.33 25.7 19.66 24 20 C24 20.66 24 21.32 24 22 C25.65 22.33 27.3 22.66 29 23 C24.85264121 24.76982406 21.30447511 23.05314714 17.3125 21.625 C16.62349609 21.39039063 15.93449219 21.15578125 15.22460938 20.9140625 C10.16171288 19.16171288 10.16171288 19.16171288 9 18 C8.63239269 15.67182036 8.29758419 13.3381615 8 11 C7.0925 10.87625 6.185 10.7525 5.25 10.625 C2.41029677 10.07890323 0.47409409 9.42736197 -2 8 C-1.33333333 5.33333333 -0.66666667 2.66666667 0 0 Z " fill="#EDF5F5" transform="translate(119,117)"/>
<path d="M0 0 C1.32 0 2.64 0 4 0 C4.38133299 1.9914056 4.71325582 3.99279077 5 6 C4.67 6.33 4.34 6.66 4 7 C3.89801798 10.30874984 3.80123841 13.6115555 3.83398438 16.921875 C3.67438137 22.1839376 3.67438137 22.1839376 1.703125 24.56933594 C-2.50703354 28.10969653 -6.67875183 30.66968796 -12 32 C-12.33 37.94 -12.66 43.88 -13 50 C-14.258125 50.556875 -15.51625 51.11375 -16.8125 51.6875 C-19.54420031 52.89725299 -22.26566779 54.12307182 -24.9765625 55.37890625 C-25.95367187 55.83136719 -26.93078125 56.28382812 -27.9375 56.75 C-28.85402344 57.17796875 -29.77054687 57.6059375 -30.71484375 58.046875 C-33 59 -33 59 -35 59 C-35 58.01 -35 57.02 -35 56 C-32.22967112 54.8529341 -29.4587654 53.70729921 -26.6875 52.5625 C-25.90181641 52.23701172 -25.11613281 51.91152344 -24.30664062 51.57617188 C-23.1706543 51.10727539 -23.1706543 51.10727539 -22.01171875 50.62890625 C-21.31522217 50.34088135 -20.61872559 50.05285645 -19.90112305 49.75610352 C-18.28856513 49.11476643 -16.64635679 48.5487856 -15 48 C-15 46.68 -15 45.36 -15 44 C-15.66 43.67 -16.32 43.34 -17 43 C-16.34 43 -15.68 43 -15 43 C-15.13942681 39.43721911 -15.28767078 35.8748574 -15.4375 32.3125 C-15.47681641 31.30509766 -15.51613281 30.29769531 -15.55664062 29.25976562 C-15.59853516 28.28330078 -15.64042969 27.30683594 -15.68359375 26.30078125 C-15.72025146 25.40528564 -15.75690918 24.50979004 -15.79467773 23.5871582 C-16.00061751 20.99221912 -16.43767822 18.53945316 -17 16 C-15.35 15.67 -13.7 15.34 -12 15 C-10.70323188 19.61073111 -11.28890861 23.33840089 -12 28 C-10.35293447 27.35731563 -8.70737825 26.71076198 -7.0625 26.0625 C-6.14597656 25.70285156 -5.22945312 25.34320312 -4.28515625 24.97265625 C-2.07581467 24.2003782 -2.07581467 24.2003782 -1 23 C-0.92511958 21.37659249 -0.91678468 19.75000151 -0.9375 18.125 C-0.94910156 16.64773437 -0.94910156 16.64773437 -0.9609375 15.140625 C-0.97382812 14.10421875 -0.98671875 13.0678125 -1 12 C-1.02539322 9.95838496 -1.04646563 7.91671 -1.0625 5.875 C-1.07410156 4.96492187 -1.08570313 4.05484375 -1.09765625 3.1171875 C-1 1 -1 1 0 0 Z " fill="#2CDFED" transform="translate(109,1)"/>
<path d="M0 0 C1.03193481 0.15843384 1.03193481 0.15843384 2.0847168 0.32006836 C3.26541748 0.49820068 3.26541748 0.49820068 4.4699707 0.67993164 C9.08136618 1.54319611 13.65300782 2.53072 18.22143555 3.59741211 C19.6590625 3.92322266 19.6590625 3.92322266 21.12573242 4.25561523 C25.85273078 5.34344554 30.464446 6.50875202 35.03393555 8.15991211 C34.70393555 8.81991211 34.37393555 9.47991211 34.03393555 10.15991211 C28.42393555 9.49991211 22.81393555 8.83991211 17.03393555 8.15991211 C17.03393555 16.40991211 17.03393555 24.65991211 17.03393555 33.15991211 C15.38393555 33.15991211 13.73393555 33.15991211 12.03393555 33.15991211 C12.03393555 24.24991211 12.03393555 15.33991211 12.03393555 6.15991211 C6.09393555 5.16991211 0.15393555 4.17991211 -5.96606445 3.15991211 C-1.96606445 0.15991211 -1.96606445 0.15991211 0 0 Z " fill="#0B315D" transform="translate(113.966064453125,161.840087890625)"/>
<path d="M0 0 C1.98 0.66 3.96 1.32 6 2 C6 5.96 6 9.92 6 14 C1 13 1 13 -4 11 C-4 14.63 -4 18.26 -4 22 C-3.14535156 22.31453125 -2.29070312 22.6290625 -1.41015625 22.953125 C-0.30542969 23.38109375 0.79929688 23.8090625 1.9375 24.25 C3.59072266 24.87648438 3.59072266 24.87648438 5.27734375 25.515625 C8 27 8 27 8.87890625 29.171875 C8.91886719 29.77515625 8.95882812 30.3784375 9 31 C8.67 30.34 8.34 29.68 8 29 C7.35933594 29.03480469 6.71867188 29.06960937 6.05859375 29.10546875 C5.19363281 29.13253906 4.32867187 29.15960938 3.4375 29.1875 C2.16712891 29.23970703 2.16712891 29.23970703 0.87109375 29.29296875 C-2.8886295 28.90932352 -5.58617358 27.60774767 -9 26 C-10.38026906 10.05022422 -10.38026906 10.05022422 -6.99609375 5.0234375 C-4.75002017 3.09019733 -2.57500061 1.46121067 0 0 Z " fill="#EFF7F8" transform="translate(138,56)"/>
<path d="M0 0 C3.40254763 0.85063691 5.80170246 1.79526762 8.875 3.375 C9.74640625 3.81972656 10.6178125 4.26445312 11.515625 4.72265625 C12.74539062 5.35494141 12.74539062 5.35494141 14 6 C15.20738114 6.60606731 16.41551697 7.21063821 17.625 7.8125 C18.40875 8.204375 19.1925 8.59625 20 9 C20 12.63 20 16.26 20 20 C15.15888235 19.41161801 11.03928805 17.92346884 6.625 15.9375 C5.98433594 15.65583984 5.34367188 15.37417969 4.68359375 15.08398438 C3.11970341 14.39540579 1.55946059 13.69855289 0 13 C0 8.71 0 4.42 0 0 Z " fill="#8199A4" transform="translate(132,24)"/>
<path d="M0 0 C0 3.63 0 7.26 0 11 C-6.21124683 14.39860676 -12.12647391 16.28161848 -19 18 C-19 13.71 -19 9.42 -19 5 C-18.08476563 4.72285156 -17.16953125 4.44570312 -16.2265625 4.16015625 C-15.03804688 3.79792969 -13.84953125 3.43570313 -12.625 3.0625 C-11.44164063 2.70285156 -10.25828125 2.34320313 -9.0390625 1.97265625 C-2.87550201 0 -2.87550201 0 0 0 Z " fill="#132F5C" transform="translate(111,102)"/>
<path d="M0 0 C0 3.96 0 7.92 0 12 C-2.60130627 13.1734316 -5.20568508 14.33892508 -7.8125 15.5 C-8.91948242 16.00080078 -8.91948242 16.00080078 -10.04882812 16.51171875 C-10.76103516 16.82753906 -11.47324219 17.14335938 -12.20703125 17.46875 C-13.18893433 17.90864258 -13.18893433 17.90864258 -14.19067383 18.35742188 C-16 19 -16 19 -19 19 C-19 15.04 -19 11.08 -19 7 C-5.36842105 0 -5.36842105 0 0 0 Z " fill="#15325E" transform="translate(88,30)"/>
<path d="M0 0 C9.405 3.465 9.405 3.465 19 7 C19 10.96 19 14.92 19 19 C14.5470164 18.41249992 10.81179158 17.26681981 6.6875 15.5 C5.63949219 15.0565625 4.59148437 14.613125 3.51171875 14.15625 C1 13 1 13 0 12 C-0.14355117 7.99779347 -0.04216403 4.00558317 0 0 Z " fill="#627E8B" transform="translate(133,66)"/>
<path d="M0 0 C-0.33 0.33 -0.66 0.66 -1 1 C-1.23287008 2.68183948 -1.41264166 4.3712416 -1.5625 6.0625 C-1.64628906 6.98160156 -1.73007813 7.90070313 -1.81640625 8.84765625 C-1.90728516 9.91306641 -1.90728516 9.91306641 -2 11 C-5.33333333 12.33333333 -8.66666667 13.66666667 -12 15 C-13.30904297 15.56074219 -13.30904297 15.56074219 -14.64453125 16.1328125 C-17 17 -17 17 -20 17 C-20 13.04 -20 9.08 -20 5 C-17.42138975 3.96555751 -14.83825365 2.94727716 -12.25 1.9375 C-11.15558594 1.49567383 -11.15558594 1.49567383 -10.0390625 1.04492188 C-8.97558594 0.6340332 -8.97558594 0.6340332 -7.890625 0.21484375 C-7.24125977 -0.04176025 -6.59189453 -0.29836426 -5.92285156 -0.56274414 C-3.63367214 -1.08330284 -2.20743336 -0.72364304 0 0 Z " fill="#153B65" transform="translate(89,92)"/>
<path d="M0 0 C2.81374361 0.97570961 5.6259936 1.95538306 8.4375 2.9375 C9.23994141 3.21529297 10.04238281 3.49308594 10.86914062 3.77929688 C11.63291016 4.04677734 12.39667969 4.31425781 13.18359375 4.58984375 C13.89056396 4.83597412 14.59753418 5.08210449 15.32592773 5.33569336 C17 6 17 6 18 7 C18.07244053 9.01964199 18.08377188 11.04167124 18.0625 13.0625 C18.05347656 14.16722656 18.04445312 15.27195312 18.03515625 16.41015625 C18.02355469 17.26480469 18.01195312 18.11945312 18 19 C11.54239821 16.9410545 5.27477704 14.5629371 -1 12 C-0.67 8.04 -0.34 4.08 0 0 Z " fill="#8099A5" transform="translate(111,38)"/>
<path d="M0 0 C0.70125 0.2475 1.4025 0.495 2.125 0.75 C1.795 2.4 1.465 4.05 1.125 5.75 C0.135 5.6675 -0.855 5.585 -1.875 5.5 C-5.62444879 5.50746902 -8.19294722 6.71965014 -11.484375 8.52734375 C-23.65135783 14.75 -23.65135783 14.75 -28.875 14.75 C-28.73316304 16.50032844 -28.58636571 18.25025534 -28.4375 20 C-28.35628906 20.97453125 -28.27507812 21.9490625 -28.19140625 22.953125 C-27.92425416 25.31461753 -27.52128032 27.46901065 -26.875 29.75 C-25.8025 29.853125 -24.73 29.95625 -23.625 30.0625 C-20.01679128 30.72400493 -18.51104977 31.32483421 -15.875 33.75 C-18.35 34.245 -18.35 34.245 -20.875 34.75 C-20.875 34.09 -20.875 33.43 -20.875 32.75 C-22.5146875 32.6571875 -22.5146875 32.6571875 -24.1875 32.5625 C-27.875 31.75 -27.875 31.75 -29.8125 29.3125 C-30.875 26.75 -30.875 26.75 -30.875 24.75 C-32.525 25.08 -34.175 25.41 -35.875 25.75 C-36.205 27.07 -36.535 28.39 -36.875 29.75 C-38.195 29.75 -39.515 29.75 -40.875 29.75 C-41.205 28.1 -41.535 26.45 -41.875 24.75 C-39.27083333 24.22916667 -36.66666667 23.70833333 -34.0625 23.1875 C-33.340625 23.043125 -32.61875 22.89875 -31.875 22.75 C-31.92140625 22.13511719 -31.9678125 21.52023438 -32.015625 20.88671875 C-32.05171875 20.07847656 -32.0878125 19.27023438 -32.125 18.4375 C-32.17140625 17.63699219 -32.2178125 16.83648437 -32.265625 16.01171875 C-31.875 13.75 -31.875 13.75 -30.15234375 12.046875 C-27.81866232 10.71791748 -25.78202536 9.98515472 -23.1875 9.3125 C-16.81955973 7.51184531 -11.03725195 5.28852543 -5.625 1.4375 C-2.875 -0.25 -2.875 -0.25 0 0 Z " fill="#40D2E7" transform="translate(111.875,54.25)"/>
<path d="M0 0 C0 0.66 0 1.32 0 2 C0.99 2.33 1.98 2.66 3 3 C1.68 3 0.36 3 -1 3 C-1 10.92 -1 18.84 -1 27 C-7.93 27 -14.86 27 -22 27 C-22 20.4 -22 13.8 -22 7 C-21.01 7.495 -21.01 7.495 -20 8 C-20.33 13.94 -20.66 19.88 -21 26 C-15.39 26 -9.78 26 -4 26 C-4 19.07 -4 12.14 -4 5 C-7.3 5.66 -10.6 6.32 -14 7 C-15.65 7 -17.3 7 -19 7 C-18.01 6.67 -17.02 6.34 -16 6 C-16 5.01 -16 4.02 -16 3 C-13.70887834 2.49750857 -11.41708499 1.99807883 -9.125 1.5 C-7.84882812 1.2215625 -6.57265625 0.943125 -5.2578125 0.65625 C-2 0 -2 0 0 0 Z " fill="#3598B2" transform="translate(91,169)"/>
<path d="M0 0 C0.66 0 1.32 0 2 0 C2 2.64 2 5.28 2 8 C2.99 8.33 3.98 8.66 5 9 C4.01 9.33 3.02 9.66 2 10 C2.99 10.61875 3.98 11.2375 5 11.875 C5.99 12.57625 6.98 13.2775 8 14 C8 14.66 8 15.32 8 16 C2.73378394 15.40421223 -1.94408019 14.18691204 -6.9375 12.4375 C-7.62134766 12.20353516 -8.30519531 11.96957031 -9.00976562 11.72851562 C-10.67508501 11.15788171 -12.33782493 10.57972902 -14 10 C-14 8.68 -14 7.36 -14 6 C-13.34 6 -12.68 6 -12 6 C-12 5.01 -12 4.02 -12 3 C-6.06 4.485 -6.06 4.485 0 6 C0 4.02 0 2.04 0 0 Z " fill="#619DAA" transform="translate(129,101)"/>
<path d="M0 0 C-1.36983503 3.16115776 -1.9890638 3.9927092 -5 6 C-5.50531866 7.92441415 -5.50531866 7.92441415 -5.51171875 10.1328125 C-5.56489258 11.34130859 -5.56489258 11.34130859 -5.61914062 12.57421875 C-5.64169922 13.41597656 -5.66425781 14.25773437 -5.6875 15.125 C-5.72166016 15.97449219 -5.75582031 16.82398437 -5.79101562 17.69921875 C-5.87359173 19.79901105 -5.93846978 21.89948564 -6 24 C-1.83211882 25.2673656 2.0942456 26.26802019 6.4375 26.625 C7.30246094 26.69976562 8.16742188 26.77453125 9.05859375 26.8515625 C10.01958984 26.92503906 10.01958984 26.92503906 11 27 C11.33 28.65 11.66 30.3 12 32 C9.525 32.495 9.525 32.495 7 33 C6.505 31.515 6.505 31.515 6 30 C5.28457031 29.87753906 4.56914062 29.75507812 3.83203125 29.62890625 C0.94887287 28.98864625 -1.58592473 28.06448444 -4.3125 26.9375 C-5.19550781 26.57527344 -6.07851562 26.21304688 -6.98828125 25.83984375 C-7.65214844 25.56269531 -8.31601563 25.28554687 -9 25 C-9.20414775 21.77177349 -9.32787876 18.54520809 -9.4375 15.3125 C-9.49615234 14.40048828 -9.55480469 13.48847656 -9.61523438 12.54882812 C-9.78425362 5.90878634 -9.78425362 5.90878634 -7.48095703 3.23974609 C-3.07330247 0 -3.07330247 0 0 0 Z " fill="#4CDBE9" transform="translate(135,58)"/>
<path d="M0 0 C3.63 1.32 7.26 2.64 11 4 C11 7.96 11 11.92 11 16 C6.51474352 15.343621 2.33085971 14.29925791 -2 13 C-1.67 12.34 -1.34 11.68 -1 11 C-0.7724985 9.12943209 -0.59037189 7.25314042 -0.4375 5.375 C-0.293125 3.60125 -0.14875 1.8275 0 0 Z " fill="#79929E" transform="translate(111,63)"/>
<path d="M0 0 C1.010625 0.185625 2.02125 0.37125 3.0625 0.5625 C3.701875 0.706875 4.34125 0.85125 5 1 C5 0.34 5 -0.32 5 -1 C10.50808397 -0.40984815 15.64878069 0.56663769 21 2 C21 2.66 21 3.32 21 4 C21.63808594 4.12117187 22.27617187 4.24234375 22.93359375 4.3671875 C24.17302734 4.61855469 24.17302734 4.61855469 25.4375 4.875 C26.26121094 5.03742188 27.08492187 5.19984375 27.93359375 5.3671875 C28.95646484 5.68042969 28.95646484 5.68042969 30 6 C30.495 6.99 30.495 6.99 31 8 C19.7779833 7.62151714 9.97837624 5.16137869 -0.6953125 1.85546875 C-3.52458301 1.12306894 -5.18550017 0.78900434 -8 1.25 C-8.99773437 1.40855469 -8.99773437 1.40855469 -10.015625 1.5703125 C-11.95123005 1.98943958 -13.8530603 2.55591809 -15.75 3.125 C-18.979584 3.99450339 -19.95927503 3.93865858 -23 3 C-8.18980705 -1.90864147 -8.18980705 -1.90864147 0 0 Z " fill="#1C5D7F" transform="translate(117,146)"/>
<path d="M0 0 C0.10815225 1.76949095 0.18566083 3.54087487 0.25 5.3125 C0.29640625 6.29863281 0.3428125 7.28476562 0.390625 8.30078125 C0 11 0 11 -1.78125 12.78125 C-4.73384454 14.4030977 -7.74320043 15.18580011 -11 16 C-11 12.37 -11 8.74 -11 5 C-11.66 4.67 -12.32 4.34 -13 4 C-8.93662608 1.29108405 -4.89951609 0 0 0 Z " fill="#11325D" transform="translate(111,38)"/>
<path d="M0 0 C0 0.66 0 1.32 0 2 C-4.95 3.65 -9.9 5.3 -15 7 C-15.0825 8.7325 -15.165 10.465 -15.25 12.25 C-15.390625 15.203125 -15.390625 15.203125 -16 18 C-16.99 18.89525391 -16.99 18.89525391 -18 19.80859375 C-20.55664996 22.6099231 -20.53290475 24.11233287 -20.609375 27.859375 C-20.64160156 28.97441406 -20.67382812 30.08945313 -20.70703125 31.23828125 C-20.72121094 32.39714844 -20.73539062 33.55601563 -20.75 34.75 C-20.79447266 36.51150391 -20.79447266 36.51150391 -20.83984375 38.30859375 C-20.91050727 41.20579822 -20.96322266 44.10219955 -21 47 C-20.34 47.33 -19.68 47.66 -19 48 C-20.32 48 -21.64 48 -23 48 C-23.11608127 43.58355402 -23.1872132 39.16749983 -23.25 34.75 C-23.28351563 33.49574219 -23.31703125 32.24148437 -23.3515625 30.94921875 C-23.36445312 29.74394531 -23.37734375 28.53867188 -23.390625 27.296875 C-23.41157227 26.18666992 -23.43251953 25.07646484 -23.45410156 23.93261719 C-22.89688457 20.33407391 -21.66027361 19.37128171 -19 17 C-18.30602551 13.96777222 -18.30602551 13.96777222 -18.25 10.75 C-18.19328125 9.67234375 -18.1365625 8.5946875 -18.078125 7.484375 C-18.05234375 6.66453125 -18.0265625 5.8446875 -18 5 C-15.56427941 4.16112944 -13.12666783 3.32873471 -10.6875 2.5 C-9.65206055 2.14228516 -9.65206055 2.14228516 -8.59570312 1.77734375 C-5.61068511 0.76791737 -3.17341086 0 0 0 Z " fill="#3DBAD1" transform="translate(105,90)"/>
<path d="M0 0 C1.32 0 2.64 0 4 0 C4.38133299 1.9914056 4.71325582 3.99279077 5 6 C4.67 6.33 4.34 6.66 4 7 C3.89801798 10.30874984 3.80123841 13.6115555 3.83398438 16.921875 C3.6742302 22.18892172 3.6742302 22.18892172 1.70092773 24.56274414 C0.109375 25.89453125 0.109375 25.89453125 -3 28 C-3.845625 28.639375 -4.69125 29.27875 -5.5625 29.9375 C-8 31 -8 31 -10.8125 30.1875 C-11.534375 29.795625 -12.25625 29.40375 -13 29 C-13 26.36 -13 23.72 -13 21 C-12.67 21 -12.34 21 -12 21 C-12 23.31 -12 25.62 -12 28 C-10.35293447 27.35731563 -8.70737825 26.71076198 -7.0625 26.0625 C-6.14597656 25.70285156 -5.22945313 25.34320312 -4.28515625 24.97265625 C-2.07581467 24.2003782 -2.07581467 24.2003782 -1 23 C-0.92511958 21.37659249 -0.91678468 19.75000151 -0.9375 18.125 C-0.94523437 17.14015625 -0.95296875 16.1553125 -0.9609375 15.140625 C-0.97382812 14.10421875 -0.98671875 13.0678125 -1 12 C-1.02539322 9.95838496 -1.04646563 7.91671 -1.0625 5.875 C-1.07410156 4.96492187 -1.08570312 4.05484375 -1.09765625 3.1171875 C-1 1 -1 1 0 0 Z " fill="#67E9F2" transform="translate(109,1)"/>
<path d="M0 0 C4.03705157 0.73032089 8.02142571 1.56658233 12.01171875 2.515625 C12.74511475 2.68868164 13.47851074 2.86173828 14.23413086 3.04003906 C20.88022729 4.64081308 27.38813402 6.57837034 33.88671875 8.703125 C33.88671875 9.693125 33.88671875 10.683125 33.88671875 11.703125 C26.43411687 11.03655688 19.41321149 9.13565237 12.19921875 7.203125 C9.79979491 6.56651708 7.40006666 5.93105513 5 5.296875 C3.94594971 5.01521484 2.89189941 4.73355469 1.8059082 4.44335938 C-0.8238427 3.77651947 -3.44811342 3.20697229 -6.11328125 2.703125 C-4.18686133 -0.12984547 -3.48427787 -0.33225234 0 0 Z " fill="#22D0DE" transform="translate(112.11328125,146.296875)"/>
<path d="M0 0 C6.52530629 0 9.34289852 0.11429951 15 2 C15 2.99 15 3.98 15 5 C10.72412002 5.08384078 7.23641013 4.84728203 3 4 C3 11.26 3 18.52 3 26 C2.01 26 1.02 26 0 26 C0 17.42 0 8.84 0 0 Z " fill="#169AB3" transform="translate(131,170)"/>
<path d="M0 0 C0.10815225 1.76949095 0.18566083 3.54087487 0.25 5.3125 C0.29640625 6.29863281 0.3428125 7.28476562 0.390625 8.30078125 C0 11 0 11 -1.7265625 12.71875 C-3.99308301 13.99610177 -6.24034559 15.14670602 -8.625 16.1875 C-9.40101562 16.53167969 -10.17703125 16.87585938 -10.9765625 17.23046875 C-13 18 -13 18 -15 18 C-14.38722388 15.03824877 -13.74627478 13.61941217 -12 11 C-8.375 9.8125 -8.375 9.8125 -5 9 C-5 6.36 -5 3.72 -5 1 C-1.125 0 -1.125 0 0 0 Z " fill="#0F315D" transform="translate(101,42)"/>
<path d="M0 0 C0.70125 0.2475 1.4025 0.495 2.125 0.75 C1.795 2.4 1.465 4.05 1.125 5.75 C0.135 5.6675 -0.855 5.585 -1.875 5.5 C-5.62523014 5.50747058 -8.19325426 6.7277577 -11.4921875 8.51953125 C-14.47611983 10.06041434 -17.51591144 11.35562939 -20.625 12.625 C-22.25695312 13.30175781 -22.25695312 13.30175781 -23.921875 13.9921875 C-26.875 14.75 -26.875 14.75 -29.265625 13.8828125 C-29.79671875 13.50898437 -30.3278125 13.13515625 -30.875 12.75 C-28.1100835 10.90672233 -26.38258566 10.22030089 -23.25 9.375 C-16.87744856 7.52640272 -11.05176502 5.29885203 -5.625 1.4375 C-2.875 -0.25 -2.875 -0.25 0 0 Z " fill="#56DBE9" transform="translate(111.875,54.25)"/>
<path d="M0 0 C0 0.99 0 1.98 0 3 C-11.01957164 2.14955687 -11.01957164 2.14955687 -15.6875 1.4375 C-19.81236221 0.89270688 -23.84670719 0.91523892 -28 1 C-28 0.34 -28 -0.32 -28 -1 C-17.65316289 -3.68251332 -10.16698861 -3.13980531 0 0 Z " fill="#23CBD9" transform="translate(126,168)"/>
<path d="M0 0 C3.7440532 1.01401441 7.37907898 2.10679406 11 3.5 C14.6162879 4.88659208 18.26128334 5.98035 22 7 C23.31298465 7.37329956 24.62549824 7.74826054 25.9375 8.125 C26.948125 8.41375 27.95875 8.7025 29 9 C29 9.66 29 10.32 29 11 C29.66 11 30.32 11 31 11 C31 11.66 31 12.32 31 13 C23.10348216 11.50455326 15.6936449 8.97265981 8.2734375 5.91796875 C5.553771 4.81982162 2.79632939 3.88305139 0 3 C0 2.01 0 1.02 0 0 Z " fill="#20D1E3" transform="translate(116,89)"/>
<path d="M0 0 C-0.33 0.33 -0.66 0.66 -1 1 C-1.20235666 3.54969386 -1.31915246 6.09692964 -1.42578125 8.65234375 C-2 11 -2 11 -3.85546875 12.37890625 C-6 13 -6 13 -9 12 C-9 5 -9 5 -7 3 C-7.66 2.34 -8.32 1.68 -9 1 C-5.57367167 -0.61798838 -3.61944899 -1.34053666 0 0 Z " fill="#154770" transform="translate(89,92)"/>
<path d="M0 0 C1.32 0 2.64 0 4 0 C4.5625 1.9375 4.5625 1.9375 5 4 C4.67 4.33 4.34 4.66 4 5 C3.84379445 6.41327947 3.74943827 7.8335459 3.68359375 9.25390625 C3.64169922 10.10791016 3.59980469 10.96191406 3.55664062 11.84179688 C3.49766602 13.18854492 3.49766602 13.18854492 3.4375 14.5625 C3.39431641 15.46419922 3.35113281 16.36589844 3.30664062 17.29492188 C3.20021858 19.52978485 3.09820012 21.76476308 3 24 C4.32 24.33 5.64 24.66 7 25 C5.02 25 3.04 25 1 25 C0.93941406 23.68644531 0.87882812 22.37289062 0.81640625 21.01953125 C0.73196744 19.28384459 0.64732112 17.54816802 0.5625 15.8125 C0.52318359 14.94818359 0.48386719 14.08386719 0.44335938 13.19335938 C0.23525647 9.01529337 -0.15302878 5.10328774 -1 1 C-0.67 0.67 -0.34 0.34 0 0 Z " fill="#39A8C4" transform="translate(74,115)"/>
<path d="M0 0 C1.32 0 2.64 0 4 0 C4.19412181 1.47831221 4.38012131 2.95769316 4.5625 4.4375 C4.66691406 5.26121094 4.77132812 6.08492188 4.87890625 6.93359375 C4.91886719 7.61550781 4.95882812 8.29742187 5 9 C3.41727399 10.58272601 1.61965997 10.34735747 -0.5625 10.5625 C-1.38878906 10.64628906 -2.21507813 10.73007813 -3.06640625 10.81640625 C-3.70449219 10.87699219 -4.34257813 10.93757813 -5 11 C-5 12.98 -5 14.96 -5 17 C-4.34 17.33 -3.68 17.66 -3 18 C-4.32 18 -5.64 18 -7 18 C-7.25 11.375 -7.25 11.375 -5 8 C-2.375 7.3125 -2.375 7.3125 0 7 C0 4.69 0 2.38 0 0 Z " fill="#3CC0D6" transform="translate(99,117)"/>
<path d="M0 0 C1.98 0.495 1.98 0.495 4 1 C3.67 8.92 3.34 16.84 3 25 C2.01 25.33 1.02 25.66 0 26 C-0.19583915 21.85451585 -0.38027842 17.7086033 -0.5625 13.5625 C-0.61857422 12.37849609 -0.67464844 11.19449219 -0.73242188 9.97460938 C-0.78076172 8.84990234 -0.82910156 7.72519531 -0.87890625 6.56640625 C-0.9260376 5.52427979 -0.97316895 4.48215332 -1.02172852 3.40844727 C-1 1 -1 1 0 0 Z " fill="#6AE8F1" transform="translate(123,12)"/>
<path d="M0 0 C0.66 0 1.32 0 2 0 C2.3403125 1.670625 2.3403125 1.670625 2.6875 3.375 C3.57619916 7.14348574 3.57619916 7.14348574 6.4375 8.1875 C7.283125 8.455625 8.12875 8.72375 9 9 C11.57993166 11.4909685 11.9782145 12.62238467 12.1875 16.25 C12.125625 17.1575 12.06375 18.065 12 19 C11.01 18.67 10.02 18.34 9 18 C8.67 15.69 8.34 13.38 8 11 C7.0925 10.87625 6.185 10.7525 5.25 10.625 C2.41029677 10.07890323 0.47409409 9.42736197 -2 8 C-1.33333333 5.33333333 -0.66666667 2.66666667 0 0 Z " fill="#5ADFEA" transform="translate(119,117)"/>
<path d="M0 0 C0.66 0 1.32 0 2 0 C2.309375 1.134375 2.61875 2.26875 2.9375 3.4375 C3.62924531 6.78775099 3.62924531 6.78775099 5 8 C6.51469448 8.23192865 8.03754562 8.41215238 9.5625 8.5625 C10.38878906 8.64628906 11.21507812 8.73007813 12.06640625 8.81640625 C12.70449219 8.87699219 13.34257812 8.93757812 14 9 C14.33 10.65 14.66 12.3 15 14 C13.35 14.33 11.7 14.66 10 15 C9.67 14.01 9.34 13.02 9 12 C8.05125 11.71125 7.1025 11.4225 6.125 11.125 C3 10 3 10 1.125 7.6875 C-0.05205769 4.87563996 -0.2582522 3.01294233 0 0 Z " fill="#3ADFEE" transform="translate(133,122)"/>
<path d="M0 0 C0.99 0 1.98 0 3 0 C3 6.93 3 13.86 3 21 C2.01 21 1.02 21 0 21 C0 14.07 0 7.14 0 0 Z " fill="#062451" transform="translate(134,174)"/>
<path d="M0 0 C-0.33 0.99 -0.66 1.98 -1 3 C-0.01 3.66 0.98 4.32 2 5 C0.25307205 5.67467562 -1.49768525 6.33944156 -3.25 7 C-4.71179688 7.556875 -4.71179688 7.556875 -6.203125 8.125 C-9 9 -9 9 -13 9 C-12.80859375 6.64453125 -12.80859375 6.64453125 -12 4 C-9.78515625 2.63671875 -9.78515625 2.63671875 -7.0625 1.6875 C-6.16660156 1.36136719 -5.27070312 1.03523438 -4.34765625 0.69921875 C-2 0 -2 0 0 0 Z " fill="#0F3D67" transform="translate(100,86)"/>
<path d="M0 0 C2.31 0.33 4.62 0.66 7 1 C5.02 1.99 5.02 1.99 3 3 C3 10.59 3 18.18 3 26 C2.01 26 1.02 26 0 26 C0 17.42 0 8.84 0 0 Z " fill="#1DD2E4" transform="translate(131,170)"/>
<path d="M0 0 C5.82945078 1.10797337 11.48863744 3.11521737 17.125 4.9375 C17.125 5.2675 17.125 5.5975 17.125 5.9375 C9.05989832 6.42905247 1.90773888 4.98687325 -5.875 2.9375 C-3.234375 -0.0703125 -3.234375 -0.0703125 0 0 Z " fill="#1DD5E3" transform="translate(111.875,146.0625)"/>
<path d="M0 0 C0.99 0 1.98 0 3 0 C3.33 2.31 3.66 4.62 4 7 C3.47792969 7.23074219 2.95585938 7.46148437 2.41796875 7.69921875 C1.68191406 8.02535156 0.94585937 8.35148437 0.1875 8.6875 C-0.62460938 9.04714844 -1.43671875 9.40679687 -2.2734375 9.77734375 C-4.18001224 10.63229775 -6.08062921 11.50060645 -7.9765625 12.37890625 C-8.95367187 12.83136719 -9.93078125 13.28382812 -10.9375 13.75 C-11.85402344 14.17796875 -12.77054687 14.6059375 -13.71484375 15.046875 C-16 16 -16 16 -18 16 C-18 15.01 -18 14.02 -18 13 C-15.22967112 11.8529341 -12.4587654 10.70729921 -9.6875 9.5625 C-8.50897461 9.07426758 -8.50897461 9.07426758 -7.30664062 8.57617188 C-6.54931641 8.26357422 -5.79199219 7.95097656 -5.01171875 7.62890625 C-4.31522217 7.34088135 -3.61872559 7.05285645 -2.90112305 6.75610352 C-1.28856513 6.11476643 0.35364321 5.5487856 2 5 C2 3.68 2 2.36 2 1 C1.34 0.67 0.68 0.34 0 0 Z " fill="#1BB3C4" transform="translate(92,44)"/>
<path d="M0 0 C2.97 0.495 2.97 0.495 6 1 C6 7.6 6 14.2 6 21 C0.06 21 -5.88 21 -12 21 C-7.11834891 17.74556594 -1.79130818 18.34403811 4 18 C4.33 12.72 4.66 7.44 5 2 C3.35 1.67 1.7 1.34 0 1 C0 0.67 0 0.34 0 0 Z " fill="#7B8D97" transform="translate(146,175)"/>
<path d="M0 0 C2.31 0.33 4.62 0.66 7 1 C7 1.66 7 2.32 7 3 C8.2375 3.1546875 8.2375 3.1546875 9.5 3.3125 C13.59289012 4.11646056 17.12540225 5.46352158 21 7 C21 7.66 21 8.32 21 9 C15.85404946 8.42381249 11.44921945 7.25256722 6.5625 5.4375 C5.32628906 4.98246094 4.09007813 4.52742188 2.81640625 4.05859375 C1.42228516 3.53458984 1.42228516 3.53458984 0 3 C0 2.01 0 1.02 0 0 Z " fill="#1ECFE1" transform="translate(116,108)"/>
<path d="M0 0 C-1.36983503 3.16115776 -1.9890638 3.9927092 -5 6 C-5.30498612 8.88563786 -5.46678873 11.6106198 -5.5 14.5 C-5.53321127 17.3893802 -5.69501388 20.11436214 -6 23 C-6.99 23.66 -7.98 24.32 -9 25 C-9.20414775 21.77177349 -9.32787876 18.54520809 -9.4375 15.3125 C-9.49615234 14.40048828 -9.55480469 13.48847656 -9.61523438 12.54882812 C-9.78425362 5.90878634 -9.78425362 5.90878634 -7.48095703 3.23974609 C-3.07330247 0 -3.07330247 0 0 0 Z " fill="#7BE4ED" transform="translate(135,58)"/>
<path d="M0 0 C0 0.66 0 1.32 0 2 C2.31 2 4.62 2 7 2 C7 9.26 7 16.52 7 24 C6.67 24 6.34 24 6 24 C6 17.07 6 10.14 6 3 C2.7 3.66 -0.6 4.32 -4 5 C-5.65 5 -7.3 5 -9 5 C-8.01 4.67 -7.02 4.34 -6 4 C-6 3.01 -6 2.02 -6 1 C-3.92446352 0.4465236 -2.15634036 0 0 0 Z " fill="#2387A8" transform="translate(81,171)"/>
<path d="M0 0 C-1 2 -1 2 -3.36328125 2.8515625 C-4.33652344 3.10679687 -5.30976562 3.36203125 -6.3125 3.625 C-7.27800781 3.88539063 -8.24351563 4.14578125 -9.23828125 4.4140625 C-12 5 -12 5 -16 5 C-16 4.01 -16 3.02 -16 2 C-10.20377279 -0.32637691 -6.13909603 -1.43680971 0 0 Z " fill="#18AAC2" transform="translate(91,153)"/>
<path d="M0 0 C0 3.63 0 7.26 0 11 C0.99 11.33 1.98 11.66 3 12 C0.69 12.66 -1.62 13.32 -4 14 C-4 10.37 -4 6.74 -4 3 C-4.66 2.67 -5.32 2.34 -6 2 C-3 0 -3 0 0 0 Z " fill="#2D7A97" transform="translate(104,40)"/>
<path d="M0 0 C0.33 0 0.66 0 1 0 C1.06058594 0.75925781 1.12117188 1.51851562 1.18359375 2.30078125 C1.26738281 3.29464844 1.35117188 4.28851563 1.4375 5.3125 C1.51871094 6.29863281 1.59992188 7.28476563 1.68359375 8.30078125 C1.91812559 11.09375599 1.91812559 11.09375599 3 14 C6.3 14.33 9.6 14.66 13 15 C8.0811341 17.45943295 5.41699411 17.15932336 0 17 C0 11.39 0 5.78 0 0 Z " fill="#15AFC8" transform="translate(91,154)"/>
<path d="M0 0 C0.33 0 0.66 0 1 0 C1.06058594 0.74765625 1.12117188 1.4953125 1.18359375 2.265625 C1.26738281 3.25046875 1.35117188 4.2353125 1.4375 5.25 C1.51871094 6.22453125 1.59992188 7.1990625 1.68359375 8.203125 C1.95074584 10.56461753 2.35371968 12.71901065 3 15 C4.0725 15.103125 5.145 15.20625 6.25 15.3125 C9.85820872 15.97400493 11.36395023 16.57483421 14 19 C12.35 19.33 10.7 19.66 9 20 C9 19.34 9 18.68 9 18 C7.3603125 17.9071875 7.3603125 17.9071875 5.6875 17.8125 C2 17 2 17 0.25 14.84375 C-1.25246469 11.42564283 -1.13263463 9.36997738 -0.6875 5.6875 C-0.50767578 4.08455078 -0.50767578 4.08455078 -0.32421875 2.44921875 C-0.21722656 1.64097656 -0.11023438 0.83273438 0 0 Z " fill="#64D5E3" transform="translate(82,69)"/>
<path d="M0 0 C-1 2 -1 2 -4 3.125 C-8.32229088 4.27521462 -12.55956873 4.18124209 -17 4 C-17 3.34 -17 2.68 -17 2 C-11.19233704 0.4943096 -6.0018137 -0.21824777 0 0 Z " fill="#13BDD4" transform="translate(115,165)"/>
<path d="M0 0 C1.98 0 3.96 0 6 0 C6.05398987 2.27057377 6.09278742 4.54151288 6.125 6.8125 C6.14820312 8.07707031 6.17140625 9.34164062 6.1953125 10.64453125 C6 14 6 14 4 17 C3.67 12.38 3.34 7.76 3 3 C2.01 2.67 1.02 2.34 0 2 C0 1.34 0 0.68 0 0 Z " fill="#12CADE" transform="translate(88,151)"/>
<path d="M0 0 C4.08378283 0.74250597 8.01939223 1.82923301 12 3 C12 3.66 12 4.32 12 5 C12.66 5 13.32 5 14 5 C14 5.66 14 6.32 14 7 C10.48294042 6.34728444 7.10674923 5.48606976 3.6875 4.4375 C2.80449219 4.16808594 1.92148438 3.89867188 1.01171875 3.62109375 C0.34785156 3.41613281 -0.31601563 3.21117188 -1 3 C-0.67 2.01 -0.34 1.02 0 0 Z " fill="#28BFD0" transform="translate(133,95)"/>
<path d="M0 0 C1.65 0.33 3.3 0.66 5 1 C4.7834375 1.9590625 4.7834375 1.9590625 4.5625 2.9375 C3.82763202 6.93844788 3.41418889 10.95504896 3 15 C2.67 15 2.34 15 2 15 C2 11.7 2 8.4 2 5 C1.01 5 0.02 5 -1 5 C-0.67 3.35 -0.34 1.7 0 0 Z " fill="#1FE2F1" transform="translate(93,16)"/>
<path d="M0 0 C0 0.66 0 1.32 0 2 C-2.43254466 2.89163384 -4.8693051 3.76348775 -7.3125 4.625 C-8.00279297 4.88023438 -8.69308594 5.13546875 -9.40429688 5.3984375 C-11.23674226 6.03580981 -13.11840502 6.52703077 -15 7 C-15.99 6.34 -16.98 5.68 -18 5 C-15.56427941 4.16112944 -13.12666783 3.32873471 -10.6875 2.5 C-9.65206055 2.14228516 -9.65206055 2.14228516 -8.59570312 1.77734375 C-5.61068511 0.76791737 -3.17341086 0 0 0 Z " fill="#15B1C5" transform="translate(105,90)"/>
<path d="M0 0 C1.65 0.33 3.3 0.66 5 1 C4.67 2.65 4.34 4.3 4 6 C2.68 6 1.36 6 0 6 C0 5.34 0 4.68 0 4 C-0.66 4 -1.32 4 -2 4 C-1.34 2.68 -0.68 1.36 0 0 Z " fill="#38E1EF" transform="translate(109,54)"/>
<path d="M0 0 C0.66 0 1.32 0 2 0 C2.20625 1.11375 2.4125 2.2275 2.625 3.375 C3.61628301 7.26599195 3.61628301 7.26599195 7.125 8.4375 C8.07375 8.623125 9.0225 8.80875 10 9 C9.67 9.99 9.34 10.98 9 12 C5.44114781 11.13005835 3.46769346 10.57682194 1.125 7.6875 C-0.05205769 4.87563996 -0.2582522 3.01294233 0 0 Z " fill="#4EDBE9" transform="translate(133,122)"/>
<path d="M0 0 C0.66 0 1.32 0 2 0 C3.25664978 2.90600261 4 4.79604584 4 8 C3.34 8 2.68 8 2 8 C2 7.34 2 6.68 2 6 C1.34 6 0.68 6 0 6 C-0.33 6.99 -0.66 7.98 -1 9 C-2.0326802 6.21176345 -2.04509293 5.1322726 -1.0625 2.25 C-0.711875 1.5075 -0.36125 0.765 0 0 Z " fill="#3BDEEB" transform="translate(119,117)"/>
<path d="M0 0 C1.32 0 2.64 0 4 0 C4 1.98 4 3.96 4 6 C2.68 6 1.36 6 0 6 C-0.38218767 4.34385343 -0.71395102 2.67542976 -1 1 C-0.67 0.67 -0.34 0.34 0 0 Z " fill="#50C6DB" transform="translate(71,78)"/>
<path d="M0 0 C1.32 0 2.64 0 4 0 C4.33 1.32 4.66 2.64 5 4 C3.35 4.66 1.7 5.32 0 6 C-0.38218767 4.34385343 -0.71395102 2.67542976 -1 1 C-0.67 0.67 -0.34 0.34 0 0 Z " fill="#57C9DC" transform="translate(74,115)"/>
<path d="M0 0 C2.31 0.33 4.62 0.66 7 1 C7 2.32 7 3.64 7 5 C4.69 4.34 2.38 3.68 0 3 C0 2.01 0 1.02 0 0 Z " fill="#31C4D4" transform="translate(116,108)"/>
<path d="M0 0 C0 0.99 0 1.98 0 3 C-3.375 3.125 -3.375 3.125 -7 3 C-7.66 2.34 -8.32 1.68 -9 1 C-6.04335481 -0.4783226 -3.25770263 -0.06032783 0 0 Z " fill="#24BDD0" transform="translate(146,172)"/>
<path d="M0 0 C0.33 0 0.66 0 1 0 C1.10957031 0.77085937 1.21914062 1.54171875 1.33203125 2.3359375 C1.49058594 3.33882812 1.64914063 4.34171875 1.8125 5.375 C1.96332031 6.37273437 2.11414063 7.37046875 2.26953125 8.3984375 C2.78772298 11.3287364 2.78772298 11.3287364 6 13 C4.33388095 13.042721 2.66617115 13.04063832 1 13 C0 12 0 12 -0.09765625 9.27734375 C-0.08605469 8.17519531 -0.07445313 7.07304687 -0.0625 5.9375 C-0.05347656 4.83277344 -0.04445313 3.72804687 -0.03515625 2.58984375 C-0.02355469 1.73519531 -0.01195313 0.88054687 0 0 Z " fill="#495671" transform="translate(69,159)"/>
<path d="M0 0 C1.64767247 0.28109113 3.29313145 0.57518526 4.9375 0.875 C5.85402344 1.03742188 6.77054688 1.19984375 7.71484375 1.3671875 C8.46894531 1.57601562 9.22304687 1.78484375 10 2 C10.33 2.66 10.66 3.32 11 4 C9.54119891 3.85892253 8.08296449 3.71197585 6.625 3.5625 C5.40683594 3.44068359 5.40683594 3.44068359 4.1640625 3.31640625 C2 3 2 3 0 2 C0 1.34 0 0.68 0 0 Z " fill="#0A2852" transform="translate(137,150)"/>
<path d="M0 0 C4.455 0.99 4.455 0.99 9 2 C9 2.66 9 3.32 9 4 C6.36 3.67 3.72 3.34 1 3 C0.67 2.01 0.34 1.02 0 0 Z " fill="#072653" transform="translate(123,146)"/>
<path d="M0 0 C1.11375 0.556875 1.11375 0.556875 2.25 1.125 C2.25 1.785 2.25 2.445 2.25 3.125 C1.321875 2.91875 0.39375 2.7125 -0.5625 2.5 C-3.90173402 1.75807034 -3.90173402 1.75807034 -6.75 4.125 C-6.75 3.135 -6.75 2.145 -6.75 1.125 C-4.02098495 -0.69434337 -3.21400584 -1.02263822 0 0 Z " fill="#51E4EE" transform="translate(141.75,54.875)"/>
<path d="M0 0 C3.96 0.99 3.96 0.99 8 2 C7.67 2.66 7.34 3.32 7 4 C4.03 3.67 1.06 3.34 -2 3 C-1.34 2.67 -0.68 2.34 0 2 C0 1.34 0 0.68 0 0 Z " fill="#12325A" transform="translate(141,168)"/>
<path d="M0 0 C2.33944736 0.28730055 4.6739143 0.61936779 7 1 C5.68 1.33 4.36 1.66 3 2 C3 2.66 3 3.32 3 4 C0.36 3.67 -2.28 3.34 -5 3 C-4.360625 2.690625 -3.72125 2.38125 -3.0625 2.0625 C-1.06389179 1.1654837 -1.06389179 1.1654837 0 0 Z " fill="#0D3C63" transform="translate(120,163)"/>
<path d="M0 0 C2.875 0.25 2.875 0.25 6 1 C7.375 3.0625 7.375 3.0625 8 5 C5.36 5 2.72 5 0 5 C0 3.33333333 0 1.66666667 0 0 Z " fill="#D9E5E8" transform="translate(106,59)"/>
<path d="M0 0 C3.63 0.33 7.26 0.66 11 1 C10.67 2.32 10.34 3.64 10 5 C5.05 3.02 5.05 3.02 0 1 C0 0.67 0 0.34 0 0 Z " fill="#D9E1E3" transform="translate(118,40)"/>
<path d="M0 0 C2.64 0 5.28 0 8 0 C7.67 0.66 7.34 1.32 7 2 C4.35139573 2.59355614 1.70802678 2.74209269 -1 3 C-0.67 2.01 -0.34 1.02 0 0 Z " fill="#11C8DB" transform="translate(107,165)"/>
<path d="M0 0 C-0.66 0 -1.32 0 -2 0 C-2 0.66 -2 1.32 -2 2 C-1.01 2.33 -0.02 2.66 1 3 C-3.05606165 2.53199289 -6.46588679 2.12046792 -10 0 C-6.33694766 -0.74926071 -3.57644848 -1.2380014 0 0 Z " fill="#2FC3D2" transform="translate(133,152)"/>
<path d="M0 0 C-0.99 0.495 -0.99 0.495 -2 1 C-2.65213292 3.02463255 -2.65213292 3.02463255 -3 5 C-4.32 5 -5.64 5 -7 5 C-6.67 3.35 -6.34 1.7 -6 0 C-3 -1 -3 -1 0 0 Z " fill="#0C345F" transform="translate(94,90)"/>
<path d="M0 0 C0.99 0.33 1.98 0.66 3 1 C-0.28804981 3.91227269 -2.59885603 5.49701212 -7 6 C-4.8322078 3.72381819 -2.67272281 1.67045176 0 0 Z " fill="#3EE5EE" transform="translate(108,24)"/>
<path d="M0 0 C1.45922693 0.11409593 2.91740598 0.24165544 4.375 0.375 C5.59316406 0.47941406 5.59316406 0.47941406 6.8359375 0.5859375 C9 1 9 1 11 3 C9.54077307 2.88590407 8.08259402 2.75834456 6.625 2.625 C5.40683594 2.52058594 5.40683594 2.52058594 4.1640625 2.4140625 C2 2 2 2 0 0 Z " fill="#0DDFEC" transform="translate(118,149)"/>
<path d="M0 0 C1.65 0 3.3 0 5 0 C5.33 1.32 5.66 2.64 6 4 C4.35 3.67 2.7 3.34 1 3 C0.67 2.01 0.34 1.02 0 0 Z " fill="#25C5D5" transform="translate(141,117)"/>
<path d="M0 0 C0 0.33 0 0.66 0 1 C-2.64 1.33 -5.28 1.66 -8 2 C-8.33 1.01 -8.66 0.02 -9 -1 C-5.23375329 -2.25541557 -3.62811066 -1.37061958 0 0 Z " fill="#6ACDDD" transform="translate(103,126)"/>
</svg>
